<svg xmlns="http://www.w3.org/2000/svg" width="179.247" height="55.144" viewBox="0 0 179.247 55.144"><g transform="translate(-876.238 -814.9)"><path d="M894.671,866.438c-4.124-10.018-5.574-20.387-5.574-31.081a82.423,82.423,0,0,1,1.062-13.78h3.934a61.174,61.174,0,0,0-1.246,13.178,99.528,99.528,0,0,0,3.838,28.1,99.492,99.492,0,0,0,3.839-28.1,61.3,61.3,0,0,0-1.247-13.178h3.934a82.527,82.527,0,0,1,1.063,13.78c0,10.694-1.451,21.063-5.577,31.081Z" fill="#ff9027"/><path d="M910.746,832.617a.875.875,0,1,1-.058,1.235.873.873,0,0,1,.058-1.235" fill="#ff9027"/><path d="M910.746,835.329a.875.875,0,1,1-.058,1.235.876.876,0,0,1,.058-1.235" fill="#ff9027"/><path d="M912.595,837.444a.875.875,0,0,1,1.178,1.293.875.875,0,1,1-1.178-1.293" fill="#ff9027"/><path d="M910.2,844.52a.875.875,0,1,1-.058,1.233.877.877,0,0,1,.058-1.233" fill="#ff9027"/><path d="M910.1,847.268a.874.874,0,1,1-.12,1.23.873.873,0,0,1,.12-1.23" fill="#ff9027"/><path d="M911.869,849.466a.875.875,0,1,1-.137,1.229.875.875,0,0,1,.137-1.229" fill="#ff9027"/><path d="M912.048,842.831a.873.873,0,1,1-.059,1.234.872.872,0,0,1,.059-1.234" fill="#ff9027"/><path d="M908.412,856.315a.872.872,0,1,1-.206,1.214.867.867,0,0,1,.206-1.214" fill="#ff9027"/><path d="M908.206,859.349a.873.873,0,1,1-.239,1.211.874.874,0,0,1,.239-1.211" fill="#ff9027"/><path d="M910.472,854.838a.874.874,0,1,1-.2,1.216.876.876,0,0,1,.2-1.216" fill="#ff9027"/><path d="M914.694,828.52a.874.874,0,1,1,.406,1.166.87.87,0,0,1-.406-1.166" fill="#ff9027"/><path d="M915.411,825.8a.875.875,0,1,1,.828.914.877.877,0,0,1-.828-.914" fill="#ff9027"/><path d="M915.306,822.692a.873.873,0,1,1,1.021.7.876.876,0,0,1-1.021-.7" fill="#ff9027"/><path d="M914.34,819.906a.875.875,0,1,1,1.2.314.877.877,0,0,1-1.2-.314" fill="#ff9027"/><path d="M912.929,830.595a.874.874,0,1,1-.058,1.235.878.878,0,0,1,.058-1.235" fill="#ff9027"/><path d="M882.649,832.617a.874.874,0,1,0,.058,1.235.873.873,0,0,0-.058-1.235" fill="#ff9027"/><path d="M882.649,835.329a.874.874,0,1,0,.058,1.235.876.876,0,0,0-.058-1.235" fill="#ff9027"/><path d="M880.8,837.444a.875.875,0,0,0-1.178,1.293.875.875,0,1,0,1.178-1.293" fill="#ff9027"/><path d="M883.2,844.52a.875.875,0,1,0,.056,1.233.872.872,0,0,0-.056-1.233" fill="#ff9027"/><path d="M883.293,847.268a.874.874,0,1,0,.121,1.23.873.873,0,0,0-.121-1.23" fill="#ff9027"/><path d="M881.526,849.466a.875.875,0,1,0,.138,1.229.873.873,0,0,0-.138-1.229" fill="#ff9027"/><path d="M881.351,842.831a.874.874,0,1,0,.056,1.234.875.875,0,0,0-.056-1.234" fill="#ff9027"/><path d="M884.983,856.315a.871.871,0,1,0,.206,1.214.865.865,0,0,0-.206-1.214" fill="#ff9027"/><path d="M885.189,859.349a.873.873,0,1,0,.243,1.211.874.874,0,0,0-.243-1.211" fill="#ff9027"/><path d="M882.925,854.838a.874.874,0,1,0,.207,1.216.874.874,0,0,0-.207-1.216" fill="#ff9027"/><path d="M878.7,828.52a.873.873,0,1,0-.408,1.166.872.872,0,0,0,.408-1.166" fill="#ff9027"/><path d="M877.984,825.8a.874.874,0,1,0-.831.914.876.876,0,0,0,.831-.914" fill="#ff9027"/><path d="M878.091,822.692a.874.874,0,1,0-1.021.7.877.877,0,0,0,1.021-.7" fill="#ff9027"/><path d="M879.056,819.906a.874.874,0,1,0-1.2.314.876.876,0,0,0,1.2-.314" fill="#ff9027"/><path d="M880.468,830.595a.874.874,0,1,0,.056,1.235.879.879,0,0,0-.056-1.235" fill="#ff9027"/><path d="M890.988,856.2,886,852.684a.927.927,0,0,1-.146-1.3l3.338-3.9a1.851,1.851,0,0,0-.124-2.618l-4.176-3.8a.923.923,0,0,1-.058-1.3l3.808-4.174a1.855,1.855,0,0,0-.122-2.618l-5.53-5.055a1.916,1.916,0,0,1-.119-2.616l5.755-7.687a1.542,1.542,0,0,0-.1-2.181,2.531,2.531,0,0,0-2.07-.5,9.572,9.572,0,0,0-8.47,10.849c.3,2.766,1.283,3.759,1.825,4.251l4.164,3.8a.922.922,0,0,1,.062,1.306l-3.807,4.176a1.853,1.853,0,0,0,.123,2.617l4.174,3.8a.924.924,0,0,1,.062,1.3l-3.353,4.2a1.852,1.852,0,0,0,.287,2.608l5,3.56a.926.926,0,0,1,.155,1.3l-2.151,3.215a1.853,1.853,0,1,0,3.013,2.158L891.3,858.8a1.849,1.849,0,0,0-.313-2.6m-7.026-38.876a.744.744,0,1,1,.049,1.054.748.748,0,0,1-.049-1.054" fill="#ff9027"/><path d="M906.942,814.926a2.523,2.523,0,0,0-2.069.5,1.541,1.541,0,0,0-.1,2.181l5.758,7.687a1.924,1.924,0,0,1-.121,2.618l-5.531,5.052a1.851,1.851,0,0,0-.121,2.618l3.81,4.174a.923.923,0,0,1-.062,1.3l-4.179,3.8a1.854,1.854,0,0,0-.119,2.617l3.337,3.906a.922.922,0,0,1-.146,1.3l-4.987,3.513a1.852,1.852,0,0,0-.313,2.6l3.763,5.275a1.854,1.854,0,0,0,3.015-2.159L906.72,858.7a.924.924,0,0,1,.16-1.3l4.995-3.562a1.849,1.849,0,0,0,.286-2.605l-3.348-4.2a.925.925,0,0,1,.059-1.306l4.174-3.806a1.857,1.857,0,0,0,.126-2.618l-3.812-4.173a.925.925,0,0,1,.064-1.3l4.166-3.8c.541-.492,1.524-1.483,1.825-4.252a9.575,9.575,0,0,0-8.473-10.848m2.443,3.451a.744.744,0,1,1,.047-1.054.745.745,0,0,1-.047,1.054" fill="#ff9027"/><path d="M927.178,850.233h8.456v-3.288h-8.456v-4.722h8.7v-3.245H923.593v19.409h12.563V855.1h-8.978Zm14.5-9.912h-3.6v18.066h12.646v-3.08H941.68Zm25.515,7.686a4.067,4.067,0,0,0,1.993-3.767,4.854,4.854,0,0,0-1.677-3.919,6.908,6.908,0,0,0-4.572-1.359h-5.923v19.425h6.938a7.6,7.6,0,0,0,4.869-1.475,4.9,4.9,0,0,0,1.866-4.031,4.958,4.958,0,0,0-1.213-3.34,5.834,5.834,0,0,0-2.281-1.534m-6.63-5.761h2.095a3.594,3.594,0,0,1,2.22.521,1.643,1.643,0,0,1,.452.631,3.078,3.078,0,0,1,.149,1.009,2.11,2.11,0,0,1-.807,1.866,4.722,4.722,0,0,1-2.759.637h-1.35Zm5.681,12.245a4.241,4.241,0,0,1-2.574.57h-3.107v-4.849h2.671a5.074,5.074,0,0,1,2.909.632,2.574,2.574,0,0,1,.1,3.647M998.94,847.8l-.38-.21a11.951,11.951,0,0,1-2.265-1.6,2.574,2.574,0,0,1-.5-.628.774.774,0,0,1-.15-.429,1.208,1.208,0,0,1,.574-1.05,2.777,2.777,0,0,1,1.685-.467,4.83,4.83,0,0,1,1.825.354,9.288,9.288,0,0,1,2.054,1.237l.726.537v-3.863l-.218-.131a10.452,10.452,0,0,0-2.133-.894,8.34,8.34,0,0,0-2.15-.3,6.242,6.242,0,0,0-4.079,1.346,4.46,4.46,0,0,0-1.628,3.508,4.238,4.238,0,0,0,.86,2.652,7.732,7.732,0,0,0,1.42,1.268c.653.493,1.488,1.029,2.5,1.65.639.366,1.147.7,1.548.986a5.479,5.479,0,0,1,.807.668,1.822,1.822,0,0,1,.412,1.124,1.432,1.432,0,0,1-.6,1.19,2.94,2.94,0,0,1-1.807.484,4.6,4.6,0,0,1-2.151-.517,8.886,8.886,0,0,1-2.181-1.752l-.783-.848V856.6l.193.127a7.459,7.459,0,0,0,2.348,1.269,8.262,8.262,0,0,0,2.731.417,6.192,6.192,0,0,0,4.079-1.344,4.392,4.392,0,0,0,1.637-3.475,5.142,5.142,0,0,0-.87-3.044,11.011,11.011,0,0,0-3.5-2.742m22.591,7.6a8.546,8.546,0,0,0,2.017-5.649,9.688,9.688,0,0,0-.711-3.686,9.568,9.568,0,0,0-2.128-3.057,9.311,9.311,0,0,0-3.116-2.033,10.083,10.083,0,0,0-3.734-.709,9.856,9.856,0,0,0-3.69.709,9.6,9.6,0,0,0-3.146,2.033,9.319,9.319,0,0,0-2.082,3.021,8.687,8.687,0,0,0-.756,3.552,9.172,9.172,0,0,0,2.009,5.862,9.3,9.3,0,0,0,5.18,3.294,23.65,23.65,0,0,0,4.5,2.577,10.367,10.367,0,0,0,4,.915h.356a1.282,1.282,0,0,0,.291-.03l.143-.021,2.659-2.335-.2-.564-.145-.352-.352.079a9.068,9.068,0,0,1-.922.141,4.118,4.118,0,0,1-.733.046,9.554,9.554,0,0,1-2.177-.282c-.47-.135-1.01-.323-1.579-.546a9.954,9.954,0,0,0,4.321-2.965m-1.978-3.729a5.975,5.975,0,0,1-1.327,1.977l-.018.017a5.916,5.916,0,0,1-4.349,1.843,6.04,6.04,0,0,1-2.352-.48,6.476,6.476,0,0,1-2-1.363v-.017a5.729,5.729,0,0,1-1.317-1.977,5.832,5.832,0,0,1-.469-2.356,5.97,5.97,0,0,1,.469-2.385,5.846,5.846,0,0,1,1.306-1.967,6.53,6.53,0,0,1,2.036-1.358,6.15,6.15,0,0,1,4.682,0,5.8,5.8,0,0,1,1.984,1.343,6.092,6.092,0,0,1,1.357,2.035,5.733,5.733,0,0,1,.467,2.332,5.968,5.968,0,0,1-.467,2.356m17.819-.246a3.3,3.3,0,0,1-1.211,2.7,4.935,4.935,0,0,1-3.3,1.058,5.6,5.6,0,0,1-2.18-.413,4.425,4.425,0,0,1-1.647-1.214,2.41,2.41,0,0,1-.495-1.01,9.567,9.567,0,0,1-.173-2.222v-9.987h-3.343v10.083a12.082,12.082,0,0,0,.3,3.136,5.166,5.166,0,0,0,1.021,1.937,7.5,7.5,0,0,0,2.822,2.164,9.066,9.066,0,0,0,3.692.731,8.33,8.33,0,0,0,5.637-1.9,6.185,6.185,0,0,0,2.2-4.985V840.336h-3.321Zm9.053,3.847v-4.428h8.511v-3.095h-8.511v-4.255h8.778v-3.078h-12.376v17.933h12.658v-3.077Zm-58.136-12.4a9.642,9.642,0,0,0-3.134-1.988,10.535,10.535,0,0,0-3.758-.692,10.211,10.211,0,0,0-3.691.692,9.289,9.289,0,0,0-3.152,1.988,9.039,9.039,0,0,0-2.132,2.956,8.755,8.755,0,0,0-.745,3.488,8.865,8.865,0,0,0,2.877,6.608,9.636,9.636,0,0,0,3.134,1.977,10.534,10.534,0,0,0,7.447.016,9.987,9.987,0,0,0,3.173-1.993,9.364,9.364,0,0,0,2.108-2.948,8.717,8.717,0,0,0,.729-3.515,8.754,8.754,0,0,0-2.856-6.589m-1.158,8.811a6.077,6.077,0,0,1-3.323,3.253,6.642,6.642,0,0,1-4.8,0,6.237,6.237,0,0,1-1.987-1.3,5.644,5.644,0,0,1-1.329-1.949,5.544,5.544,0,0,1-.467-2.29,5.8,5.8,0,0,1,.467-2.316,5.864,5.864,0,0,1,1.329-1.923,7.048,7.048,0,0,1,2.04-1.323,6.353,6.353,0,0,1,4.707,0,5.918,5.918,0,0,1,2,1.323,6.061,6.061,0,0,1,1.375,1.978,5.765,5.765,0,0,1,.45,2.261,5.64,5.64,0,0,1-.465,2.29M928.71,834.7a4.977,4.977,0,0,0,3.814-1.512,5.809,5.809,0,0,0,1.412-4.071V821.71h-1.068v7.467a4.632,4.632,0,0,1-1.108,3.25,4.038,4.038,0,0,1-3.05,1.213,3.95,3.95,0,0,1-3.026-1.213,4.523,4.523,0,0,1-1.141-3.25V821.71h-1.021v7.409a5.7,5.7,0,0,0,1.4,4.071,4.938,4.938,0,0,0,3.79,1.512m10.137-11.067,8.21,9.907h.822v-11.2h-.884V832.1l-8.113-9.759h-.934v11.2h.9Zm13.1,10.076h.95V822.495h-.95Zm9.013.184,4.706-11.4h-.952l-3.831,9.413-3.782-9.413h-.995l4.722,11.4Zm13.515-.951H969.23v-4.556h4.945v-.721H969.23v-4.445h5.119v-.728h-6.014v11.217h6.144Zm4.834-4.626h.9a6.233,6.233,0,0,1,1.428.131,1.606,1.606,0,0,1,.787.427,6.8,6.8,0,0,1,.591.749c.246.337.561.783.9,1.332l1.775,2.754H986.7l-3.06-4.718a3.413,3.413,0,0,0-.424-.544,4.347,4.347,0,0,0-.564-.407,3.114,3.114,0,0,0,1.588-1.031,2.689,2.689,0,0,0,.524-1.7,2.472,2.472,0,0,0-.932-2.087,4.409,4.409,0,0,0-2.706-.728h-2.693v11.217h.882Zm0-5.056h1.864a3.014,3.014,0,0,1,1.94.537,1.827,1.827,0,0,1,.672,1.51,2.215,2.215,0,0,1-.295,1.2,1.941,1.941,0,0,1-.916.758,3.641,3.641,0,0,1-.824.231c-.344.029-.919.052-1.748.052h-.693Zm15.9,7.536a3.371,3.371,0,0,0-.18-1.065,2.915,2.915,0,0,0-.545-.89,5.869,5.869,0,0,0-2.053-1.214,2.429,2.429,0,0,1-.238-.117,5.055,5.055,0,0,1-1.777-1.041,1.691,1.691,0,0,1-.41-1.192,1.985,1.985,0,0,1,.631-1.516,2.363,2.363,0,0,1,1.64-.6,3.62,3.62,0,0,1,1.235.223,5.77,5.77,0,0,1,1.325.708v-1a6.225,6.225,0,0,0-1.248-.563,5.023,5.023,0,0,0-1.268-.189,3.218,3.218,0,0,0-2.315.844,2.766,2.766,0,0,0-.9,2.121,2.546,2.546,0,0,0,.58,1.742,6.01,6.01,0,0,0,2.182,1.337,6.161,6.161,0,0,1,1.966,1.124,1.811,1.811,0,0,1,.418,1.254,2.117,2.117,0,0,1-.631,1.637,2.386,2.386,0,0,1-1.714.6,3.487,3.487,0,0,1-1.346-.3,6.252,6.252,0,0,1-1.493-.911v1.078a5.934,5.934,0,0,0,1.424.752,4.43,4.43,0,0,0,1.432.239,3.274,3.274,0,0,0,2.354-.853,2.9,2.9,0,0,0,.927-2.207m4.519-8.3h-.944v11.215h.944Zm10.134,10.953a4.781,4.781,0,0,0,1.63-.781,5.419,5.419,0,0,0,1.622-1.978,6.149,6.149,0,0,0,0-5.188,5.415,5.415,0,0,0-1.622-1.977,4.868,4.868,0,0,0-1.615-.783,8.877,8.877,0,0,0-2.158-.246h-3.842v11.217h3.842a7.747,7.747,0,0,0,2.143-.264m-5.036-.534v-9.618h2.669a9.053,9.053,0,0,1,1.879.192,4.065,4.065,0,0,1,1.368.572,4.446,4.446,0,0,1,1.463,1.7,5.263,5.263,0,0,1,.514,2.35,5.43,5.43,0,0,1-.514,2.355,4.564,4.564,0,0,1-1.463,1.7,4.153,4.153,0,0,1-1.368.578,9.266,9.266,0,0,1-1.879.169Zm15.153-9.992-4.609,10.79h.9l1.573-3.732h4.638l1.576,3.732h.9l-4.613-10.79Zm-1.852,6.327,2.043-4.849,2.014,4.849Zm16.039,4.2a4.491,4.491,0,0,0,1.622-.781,5.323,5.323,0,0,0,1.623-1.978,6.071,6.071,0,0,0,0-5.188,5.319,5.319,0,0,0-1.623-1.977,4.571,4.571,0,0,0-1.6-.783,9,9,0,0,0-2.163-.246H1028.2v11.217h3.824a7.764,7.764,0,0,0,2.146-.264m-5.044-.534v-9.618h2.678a9.034,9.034,0,0,1,1.878.192,4.022,4.022,0,0,1,1.365.572,4.294,4.294,0,0,1,1.454,1.7,5.11,5.11,0,0,1,.522,2.35,5.27,5.27,0,0,1-.522,2.355,4.4,4.4,0,0,1-1.454,1.7,4.109,4.109,0,0,1-1.365.578,9.247,9.247,0,0,1-1.878.169Z" fill="#394024"/><path d="M926.642,868.274h-.536l-2.067-4.737h.612l1.723,3.973,1.726-3.973h.612Z" fill="#394024"/><path d="M930.157,863.734a.361.361,0,0,1-.375.362.356.356,0,0,1-.367-.362.362.362,0,0,1,.367-.356.366.366,0,0,1,.375.356m-.644,1.058h.547v3.482h-.547Z" fill="#394024"/><path d="M934.709,868.428a1.674,1.674,0,0,1-1.833,1.616,1.756,1.756,0,0,1-1.719-.9l.465-.356a1.251,1.251,0,0,0,1.254.734,1.2,1.2,0,0,0,1.3-1.166v-.664a1.647,1.647,0,0,1-1.387.677,1.835,1.835,0,0,1,0-3.665,1.661,1.661,0,0,1,1.387.668v-.582h.538Zm-.538-1.895a1.321,1.321,0,0,0-1.3-1.358,1.357,1.357,0,0,0,0,2.711,1.313,1.313,0,0,0,1.3-1.353" fill="#394024"/><path d="M936.656,863.734a.365.365,0,0,1-.379.362.355.355,0,0,1-.366-.362.36.36,0,0,1,.366-.356.371.371,0,0,1,.379.356m-.651,1.058h.546v3.482h-.546Z" fill="#394024"/><path d="M938.323,867.385a.444.444,0,0,0,.49.46.977.977,0,0,0,.421-.1l.113.45a1.151,1.151,0,0,1-.617.18.9.9,0,0,1-.949-.959v-4.584h.542Z" fill="#394024"/><path d="M942.841,866.013v2.263h-.528v-.529a1.559,1.559,0,0,1-1.307.625,1.119,1.119,0,0,1-1.263-1.066c0-.647.488-1.1,1.4-1.1h1.171v-.159a.823.823,0,0,0-.888-.876.89.89,0,0,0-.973.706l-.516-.115a1.378,1.378,0,0,1,1.458-1.059,1.275,1.275,0,0,1,1.447,1.308m-.528.8v-.179h-1.178c-.572,0-.876.272-.876.662,0,.365.323.627.824.627a1.159,1.159,0,0,0,1.23-1.11" fill="#394024"/><path d="M947.26,868.273h-.535v-.58a1.651,1.651,0,0,1-1.392.677,1.835,1.835,0,0,1,0-3.665,1.665,1.665,0,0,1,1.392.668v-2.545h.535Zm-.535-1.74a1.321,1.321,0,0,0-1.3-1.358,1.357,1.357,0,0,0,0,2.711,1.314,1.314,0,0,0,1.3-1.353" fill="#394024"/><path d="M951.284,866.013v2.263h-.523v-.529a1.569,1.569,0,0,1-1.308.625,1.125,1.125,0,0,1-1.27-1.066c0-.647.488-1.1,1.407-1.1h1.171v-.159a.825.825,0,0,0-.893-.876.89.89,0,0,0-.971.706l-.516-.115a1.378,1.378,0,0,1,1.46-1.059,1.272,1.272,0,0,1,1.443,1.308m-.523.8v-.179h-1.179c-.577,0-.878.272-.878.662,0,.365.324.627.826.627a1.162,1.162,0,0,0,1.231-1.11" fill="#394024"/><path d="M959.248,868.274h-.535V864.8l-1.833,3.476h-.359l-1.843-3.476v3.476h-.538v-4.737h.493l2.062,3.905,2.063-3.905h.49Z" fill="#394024"/><path d="M961.192,863.734a.36.36,0,0,1-.375.362.354.354,0,0,1-.365-.362.359.359,0,0,1,.365-.356.366.366,0,0,1,.375.356m-.64,1.058h.54v3.482h-.54Z" fill="#394024"/><path d="M965.651,866.191v2.083h-.538v-1.991a.98.98,0,0,0-.971-1.083c-.731,0-1.209.492-1.209,1.4v1.673H962.4v-3.482h.534v.58a1.483,1.483,0,0,1,1.317-.665,1.367,1.367,0,0,1,1.4,1.484" fill="#394024"/><path d="M970.01,866.648h-2.993a1.267,1.267,0,0,0,1.24,1.25,1.19,1.19,0,0,0,1.186-.755l.48.118a1.666,1.666,0,0,1-1.666,1.109,1.832,1.832,0,0,1,.031-3.663,1.7,1.7,0,0,1,1.722,1.735Zm-2.971-.412h2.424a1.159,1.159,0,0,0-1.175-1.064,1.253,1.253,0,0,0-1.249,1.064" fill="#394024"/><path d="M974.279,868.273h-.543v-.58a1.628,1.628,0,0,1-1.38.677,1.835,1.835,0,0,1,0-3.665,1.641,1.641,0,0,1,1.38.668v-2.545h.543Zm-.543-1.74a1.314,1.314,0,0,0-1.3-1.358,1.356,1.356,0,0,0,0,2.711,1.307,1.307,0,0,0,1.3-1.353" fill="#394024"/><path d="M978.7,868.27h-.546v-.564a1.521,1.521,0,0,1-1.314.657,1.373,1.373,0,0,1-1.407-1.489v-2.083h.549v1.991a.963.963,0,0,0,.958,1.074c.733,0,1.214-.484,1.214-1.389v-1.676h.546Z" fill="#394024"/><path d="M982.589,867.081l.5.13a1.7,1.7,0,0,1-1.656,1.161,1.834,1.834,0,0,1,0-3.667,1.69,1.69,0,0,1,1.657,1.156l-.517.157a1.151,1.151,0,0,0-1.14-.817,1.334,1.334,0,0,0,0,2.667,1.187,1.187,0,0,0,1.156-.787" fill="#394024"/><path d="M986.789,866.013v2.263h-.516v-.529a1.6,1.6,0,0,1-1.314.625,1.116,1.116,0,0,1-1.263-1.066c0-.647.482-1.1,1.4-1.1h1.181v-.159a.83.83,0,0,0-.891-.876.891.891,0,0,0-.98.706l-.521-.115a1.386,1.386,0,0,1,1.463-1.059,1.271,1.271,0,0,1,1.445,1.308m-.516.8v-.179h-1.188c-.576,0-.876.272-.876.662,0,.365.321.627.822.627a1.165,1.165,0,0,0,1.242-1.11" fill="#394024"/><path d="M990.517,867.081l.495.13a1.676,1.676,0,0,1-1.645,1.161,1.834,1.834,0,0,1,0-3.667,1.694,1.694,0,0,1,1.655,1.156l-.516.157a1.154,1.154,0,0,0-1.139-.817,1.334,1.334,0,0,0,0,2.667,1.181,1.181,0,0,0,1.15-.787" fill="#394024"/><path d="M992.637,863.734a.358.358,0,0,1-.373.362.354.354,0,0,1-.366-.362.36.36,0,0,1,.366-.356.363.363,0,0,1,.373.356m-.645,1.058h.549v3.482h-.549Z" fill="#394024"/><path d="M997.217,866.531a1.847,1.847,0,1,1-1.839-1.818,1.78,1.78,0,0,1,1.839,1.818m-.523,0a1.325,1.325,0,1,0-2.65,0,1.325,1.325,0,1,0,2.65,0m-1.517-2.3.567-.991h.636l-.726.991Z" fill="#394024"/><path d="M1001.4,866.191v2.083h-.535v-1.991a.984.984,0,0,0-.968-1.083c-.734,0-1.214.492-1.214,1.4v1.673h-.537v-3.482h.537v.58a1.482,1.482,0,0,1,1.315-.665,1.366,1.366,0,0,1,1.4,1.484" fill="#394024"/></g></svg>