<svg xmlns="http://www.w3.org/2000/svg" width="129.842" height="44.004" viewBox="0 0 129.842 44.004"><g transform="translate(-1132.805 -817.992)"><path d="M1197.559,818.492c-41.851,0-64.04,29.693-64.04,29.693l9.1,6.146a44.719,44.719,0,0,1,3.62-6.692,10.373,10.373,0,0,0,.144,1.676c1.609,12.475,13.729,12.176,13.729,12.176h75.151s12.282.337,13.89-12.134a9.447,9.447,0,0,0,.134-1.622,44.537,44.537,0,0,1,3.559,6.515l9.086-6.079s-22.52-29.679-64.369-29.679" fill="#ed1c24" stroke="#ed1c24" stroke-miterlimit="10" stroke-width="1"/><path d="M1247.288,849.172a11.921,11.921,0,0,1-12.185,9.54h-75.026a11.733,11.733,0,0,1-12.034-9.626,7.561,7.561,0,0,1,.882-5.517c7.59-10,22.619-23.424,48.6-23.424,26.208,0,41.36,13.621,48.952,23.618.876,1.116,1.205,2.933.813,5.409" fill="#fff"/><path d="M1175.644,838.769l1.255-2.682h-16.051l-1.255,2.682h6.215l-6.438,13.089h4.159l6.432-13.089h5.683" fill="#ed1c24"/><path d="M1237.6,849.5s-.812.376-1.158.011-.037-1.028-.037-1.028l3.39-7.131h-3.457l-.528.951c-2.02-1.774-5.818-.858-8.171,1.6a7.643,7.643,0,0,0-2.231,4.566,10.381,10.381,0,0,1-1.859.968s-.812.38-1.16.012-.033-1.033-.033-1.033l6.018-12.387h-3.453l-3.164,6.215c-2.018-1.774-5.816-.858-8.172,1.6a9.471,9.471,0,0,0-1.209,1.574l0-.013c-.023.05-.046.093-.069.134-.072.132-.146.252-.211.38-1.879,3.255-4.214,3.795-4.214,3.795-4.943,1.477-5.506-.942-5.506-.942,5.531-2.045,7.611-4.469,7.419-6.323s-2.733-1.952-2.733-1.952c-4.181-.251-7.8,2.679-8.681,5.54a5.36,5.36,0,0,0-.187,2.585,9.273,9.273,0,0,1-2.64,1.034c-1.39.441-1.562-.221-1.731-.624s-.794-3.971-.794-3.971l5.87-3.845h-3.594l-4.412,2.739c-.991.41-.609-.634-.609-.634l3.6-7.292h-3.459l-5.847,11.838a24.458,24.458,0,0,1-3,1.572s-.809.38-1.158.012-.041-1.033-.041-1.033l3.393-7.127h-3.456l-.528.955c-2.021-1.774-5.818-.858-8.169,1.6s-2.958,5.709-1.347,7.248c1.285,1.234,3.606,1,5.685-.4,0,0,.528-.45.812.078.294.552,1.482,1.794,4.228.711a19.165,19.165,0,0,0,2.348-1.117l-.719,1.455h3.456l1.734-3.5,1.5-.96s.461-.364.645.413a24.352,24.352,0,0,0,1.04,3.328c.287.384.866,1.255,3.3.559a42.1,42.1,0,0,0,4.512-1.59c.815,1.125,2.377,1.88,4.942,1.88a12,12,0,0,0,7.6-2.75,3.007,3.007,0,0,0,.884,1.9c1.282,1.234,3.6,1,5.679-.4,0,0,.528-.45.815.078.294.552,1.482,1.794,4.23.711a13.976,13.976,0,0,0,2.656-1.341,2.842,2.842,0,0,0,.666,1.019c1.293,1.229,3.607,1,5.685-.4,0,0,.524-.453.814.08.295.55,1.485,1.794,4.225.709a9.017,9.017,0,0,0,3.537-2.061l-.694-1.225a10.443,10.443,0,0,1-2.259,1.245m-60.009-2.043c-1.2,1.68-2.887,2.529-3.778,1.9s-.653-2.511.543-4.193,2.889-2.531,3.78-1.9.647,2.509-.545,4.192m24.506-1.225a6.2,6.2,0,0,1,3.293-3.653s.717-.241,1.1.071c0,0,.535.522-.107,1.477a8.125,8.125,0,0,1-3.448,2.926s-1.351.593-.842-.821m17.457,1.225c-1.2,1.68-2.891,2.529-3.785,1.9s-.645-2.511.551-4.193,2.886-2.531,3.777-1.9.648,2.509-.543,4.192m14.046.062c-1.195,1.681-2.883,2.533-3.777,1.9s-.648-2.51.548-4.192,2.883-2.532,3.777-1.9.648,2.512-.548,4.193" fill="#ed1c24"/></g></svg>