<svg xmlns="http://www.w3.org/2000/svg" width="159.291" height="98.124" viewBox="0 0 159.291 98.124"><g transform="translate(-1007.629 -3534.748)"><g transform="translate(-2423.998)"><path d="M3511.068,3535.248c-51.449,0-78.727,36.5-78.727,36.5l11.182,7.556a54.97,54.97,0,0,1,4.452-8.23,12.675,12.675,0,0,0,.176,2.063c1.977,15.336,16.877,14.966,16.877,14.966h92.387s15.1.416,17.075-14.915a11.635,11.635,0,0,0,.164-1.995,54.83,54.83,0,0,1,4.376,8.009l11.169-7.474s-27.684-36.484-79.131-36.484" fill="#ed1c24" stroke="#ed1c24" stroke-miterlimit="10" stroke-width="1"/><path d="M3572.2,3572.964a14.654,14.654,0,0,1-14.979,11.728H3464.99c-12.967,0-14.793-11.834-14.793-11.834a9.3,9.3,0,0,1,1.083-6.781c9.331-12.295,27.807-28.8,59.744-28.8,32.218,0,50.846,16.743,60.18,29.034,1.076,1.371,1.479,3.606,1,6.649" fill="#fff"/><path d="M3484.127,3560.176l1.543-3.3h-19.732l-1.542,3.3h7.64l-7.914,16.092h5.112l7.908-16.092h6.985" fill="#ed1c24"/><path d="M3560.3,3573.365s-1,.461-1.423.013-.047-1.263-.047-1.263l4.168-8.767h-4.25l-.648,1.17c-2.485-2.18-7.153-1.055-10.046,1.965a9.4,9.4,0,0,0-2.743,5.612,12.653,12.653,0,0,1-2.285,1.19s-1,.467-1.426.016-.041-1.271-.041-1.271l7.4-15.227h-4.243l-3.892,7.638c-2.48-2.179-7.149-1.053-10.045,1.965a11.626,11.626,0,0,0-1.486,1.937l0-.017c-.028.061-.057.114-.085.164-.088.162-.18.311-.258.468-2.31,4-5.181,4.665-5.181,4.665-6.077,1.817-6.769-1.158-6.769-1.158,6.8-2.514,9.356-5.493,9.12-7.773s-3.359-2.4-3.359-2.4c-5.141-.309-9.6,3.293-10.672,6.81a6.579,6.579,0,0,0-.231,3.177,11.412,11.412,0,0,1-3.245,1.273c-1.71.541-1.921-.273-2.128-.769s-.976-4.881-.976-4.881l7.216-4.726h-4.417l-5.424,3.366c-1.219.506-.749-.779-.749-.779l4.432-8.965h-4.254l-7.186,14.555a30.171,30.171,0,0,1-3.687,1.931s-.995.467-1.422.016-.051-1.271-.051-1.271l4.172-8.76h-4.25l-.649,1.171c-2.484-2.179-7.153-1.053-10.043,1.965s-3.635,7.019-1.655,8.911c1.58,1.517,4.432,1.233,6.988-.49,0,0,.649-.554,1,.1.363.679,1.823,2.2,5.2.874a23.763,23.763,0,0,0,2.886-1.373l-.885,1.787h4.25l2.132-4.3,1.848-1.182s.566-.447.793.508a29.982,29.982,0,0,0,1.278,4.091c.353.473,1.065,1.543,4.052.688a52.1,52.1,0,0,0,5.547-1.954c1,1.383,2.922,2.311,6.076,2.311a14.758,14.758,0,0,0,9.34-3.382,3.7,3.7,0,0,0,1.087,2.331c1.577,1.517,4.428,1.233,6.982-.49,0,0,.649-.554,1,.1.362.679,1.822,2.2,5.2.874a17.06,17.06,0,0,0,3.265-1.65,3.466,3.466,0,0,0,.818,1.252c1.59,1.512,4.436,1.232,6.99-.494,0,0,.645-.556,1,.1.362.677,1.826,2.205,5.194.872s4.348-2.532,4.348-2.532l-.854-1.507a12.677,12.677,0,0,1-2.776,1.53m-73.773-2.511c-1.473,2.064-3.548,3.109-4.643,2.331s-.8-3.087.667-5.156,3.551-3.11,4.646-2.33.8,3.086-.67,5.155m30.127-1.5a7.623,7.623,0,0,1,4.049-4.492s.881-.3,1.356.087c0,0,.659.642-.131,1.817a9.974,9.974,0,0,1-4.238,3.6s-1.662.727-1.036-1.008m21.461,1.5c-1.476,2.064-3.555,3.109-4.653,2.331s-.793-3.087.677-5.156,3.547-3.11,4.643-2.33.8,3.086-.667,5.155m17.268.076c-1.471,2.065-3.545,3.114-4.644,2.332s-.8-3.086.673-5.153,3.545-3.113,4.644-2.334.8,3.088-.673,5.155" fill="#ed1c24"/></g><path d="M5.7-11.378q0-2.295.112-3.888a11.036,11.036,0,0,1,.446-2.613,2.908,2.908,0,0,1,.956-1.482,2.685,2.685,0,0,1,1.641-.462,2.685,2.685,0,0,1,1.641.462,2.908,2.908,0,0,1,.956,1.482,11.036,11.036,0,0,1,.446,2.613q.112,1.594.112,3.888t-.112,3.9a10.84,10.84,0,0,1-.446,2.613A2.9,2.9,0,0,1,10.5-3.394a2.685,2.685,0,0,1-1.641.462,2.685,2.685,0,0,1-1.641-.462A2.9,2.9,0,0,1,6.263-4.86a10.84,10.84,0,0,1-.446-2.613Q5.7-9.083,5.7-11.378Zm-4.589,0A43.831,43.831,0,0,0,1.354-6.6,10.533,10.533,0,0,0,2.406-2.868,5.591,5.591,0,0,0,4.749-.478,8.659,8.659,0,0,0,8.86.351a8.659,8.659,0,0,0,4.111-.829,5.591,5.591,0,0,0,2.342-2.39A10.533,10.533,0,0,0,16.365-6.6a43.831,43.831,0,0,0,.239-4.781,43.949,43.949,0,0,0-.239-4.765,10.558,10.558,0,0,0-1.052-3.745,5.887,5.887,0,0,0-2.342-2.438A8.262,8.262,0,0,0,8.86-23.2a8.262,8.262,0,0,0-4.111.876,5.887,5.887,0,0,0-2.342,2.438,10.558,10.558,0,0,0-1.052,3.745A43.949,43.949,0,0,0,1.115-11.378ZM24.6-22.755h-5.29V0H23.52V-15.935h.064L29.193,0H34.42V-22.755H30.213V-7.171h-.064Zm22.723,7.681h4.589a21.76,21.76,0,0,0-.175-2.661,7.012,7.012,0,0,0-.876-2.645A5.418,5.418,0,0,0,48.746-22.4a7.935,7.935,0,0,0-3.872-.8,8.262,8.262,0,0,0-4.111.876,5.887,5.887,0,0,0-2.342,2.438,10.558,10.558,0,0,0-1.052,3.745,43.949,43.949,0,0,0-.239,4.765A43.831,43.831,0,0,0,37.368-6.6,10.533,10.533,0,0,0,38.42-2.868a5.591,5.591,0,0,0,2.342,2.39,8.659,8.659,0,0,0,4.111.829,8.327,8.327,0,0,0,3.681-.7,5.3,5.3,0,0,0,2.2-1.944,7.937,7.937,0,0,0,1.068-2.9A20.546,20.546,0,0,0,52.108-8.7H47.519a15.99,15.99,0,0,1-.223,2.98,5.39,5.39,0,0,1-.606,1.753,1.918,1.918,0,0,1-.908.829,3.059,3.059,0,0,1-1.131.207,2.663,2.663,0,0,1-1.291-.3,2.262,2.262,0,0,1-.924-1.179,9.276,9.276,0,0,1-.542-2.47,39.787,39.787,0,0,1-.175-4.175q0-2.422.127-4.1a12.78,12.78,0,0,1,.446-2.709,3.064,3.064,0,0,1,.876-1.5,2.149,2.149,0,0,1,1.418-.462,2.206,2.206,0,0,1,2.151,1.131A8.262,8.262,0,0,1,47.327-15.075Zm11.505,3.7q0-2.295.112-3.888a11.036,11.036,0,0,1,.446-2.613,2.908,2.908,0,0,1,.956-1.482,2.685,2.685,0,0,1,1.641-.462,2.685,2.685,0,0,1,1.641.462,2.908,2.908,0,0,1,.956,1.482,11.036,11.036,0,0,1,.446,2.613q.112,1.594.112,3.888t-.112,3.9a10.84,10.84,0,0,1-.446,2.613,2.9,2.9,0,0,1-.956,1.466,2.685,2.685,0,0,1-1.641.462,2.685,2.685,0,0,1-1.641-.462A2.9,2.9,0,0,1,59.39-4.86a10.84,10.84,0,0,1-.446-2.613Q58.833-9.083,58.833-11.378Zm-4.589,0A43.831,43.831,0,0,0,54.482-6.6a10.533,10.533,0,0,0,1.052,3.729,5.591,5.591,0,0,0,2.342,2.39,8.659,8.659,0,0,0,4.111.829A8.659,8.659,0,0,0,66.1-.478a5.591,5.591,0,0,0,2.342-2.39A10.533,10.533,0,0,0,69.493-6.6a43.83,43.83,0,0,0,.239-4.781,43.948,43.948,0,0,0-.239-4.765,10.558,10.558,0,0,0-1.052-3.745A5.887,5.887,0,0,0,66.1-22.325a8.262,8.262,0,0,0-4.111-.876,8.262,8.262,0,0,0-4.111.876,5.887,5.887,0,0,0-2.342,2.438,10.558,10.558,0,0,0-1.052,3.745A43.949,43.949,0,0,0,54.243-11.378ZM72.441,0H85.157V-3.761H77.03V-22.755H72.441ZM91.308-11.378q0-2.295.112-3.888a11.036,11.036,0,0,1,.446-2.613,2.908,2.908,0,0,1,.956-1.482,2.685,2.685,0,0,1,1.641-.462,2.685,2.685,0,0,1,1.641.462,2.908,2.908,0,0,1,.956,1.482,11.036,11.036,0,0,1,.446,2.613q.112,1.594.112,3.888t-.112,3.9a10.84,10.84,0,0,1-.446,2.613A2.9,2.9,0,0,1,96.1-3.394a2.685,2.685,0,0,1-1.641.462,2.685,2.685,0,0,1-1.641-.462,2.9,2.9,0,0,1-.956-1.466,10.84,10.84,0,0,1-.446-2.613Q91.308-9.083,91.308-11.378Zm-4.589,0A43.83,43.83,0,0,0,86.958-6.6,10.533,10.533,0,0,0,88.01-2.868a5.591,5.591,0,0,0,2.342,2.39,8.659,8.659,0,0,0,4.111.829,8.659,8.659,0,0,0,4.111-.829,5.591,5.591,0,0,0,2.342-2.39A10.533,10.533,0,0,0,101.969-6.6a43.83,43.83,0,0,0,.239-4.781,43.948,43.948,0,0,0-.239-4.765,10.558,10.558,0,0,0-1.052-3.745,5.887,5.887,0,0,0-2.342-2.438,8.262,8.262,0,0,0-4.111-.876,8.262,8.262,0,0,0-4.111.876,5.887,5.887,0,0,0-2.342,2.438,10.558,10.558,0,0,0-1.052,3.745A43.948,43.948,0,0,0,86.719-11.378ZM115.02-16h4.4a7.779,7.779,0,0,0-1.657-5.338Q116.1-23.2,112.343-23.2a8.159,8.159,0,0,0-3.665.733,5.752,5.752,0,0,0-2.358,2.183,10.064,10.064,0,0,0-1.259,3.617,30.522,30.522,0,0,0-.367,5.036,46.8,46.8,0,0,0,.255,5.211,11.563,11.563,0,0,0,1,3.777,5.011,5.011,0,0,0,2.072,2.263,7.032,7.032,0,0,0,3.426.733,6.4,6.4,0,0,0,2.789-.558,4.836,4.836,0,0,0,1.992-1.9h.064V0h3.378V-12.27h-7.426v3.378h3.028v2.327a4.148,4.148,0,0,1-.287,1.609,3.625,3.625,0,0,1-.717,1.131,3.009,3.009,0,0,1-.924.669,2.227,2.227,0,0,1-.908.223,2.178,2.178,0,0,1-1.609-.621,4.065,4.065,0,0,1-.956-1.785,14.312,14.312,0,0,1-.462-2.821q-.127-1.657-.127-3.7a18.168,18.168,0,0,1,.733-6.119,2.5,2.5,0,0,1,2.39-1.848,1.949,1.949,0,0,1,1.2.367,2.968,2.968,0,0,1,.813.924,4.251,4.251,0,0,1,.462,1.227A6.227,6.227,0,0,1,115.02-16ZM126.3-22.755h-5.163l5.9,13.8V0h4.589V-8.956l5.9-13.8h-4.972l-3.187,8.8H129.3Z" transform="translate(1017.315 3632.521)" fill="#666"/></g></svg>